name rise42.5664peak47.7979fall81.9185.mot
datacolumns 19
datarows 27
range 2.95332500000000 2.99665600000000
endheader
time	ground_force1_vx	ground_force1_vy	ground_force1_vz	ground_force1_px	ground_force1_py	ground_force1_pz	ground_force2_vx	ground_force2_vy	ground_force2_vz	ground_force2_px	ground_force2_py	ground_force2_pz	ground_torque1_x	ground_torque1_y	ground_torque1_z	ground_torque2_x	ground_torque2_y	ground_torque2_z	
2.95332500000000	16.31041000000000	701.97139400000003	37.11532700000000	0.17129400000000	0.00000000000000	0.08560000000000	0.00000000000000	0.00000000000000	0.00000000000000	0.00000000000000	0.00000000000000	0.00000000000000	0.00000000000000	11.30785700000000	0.00000000000000	0.00000000000000	0.00000000000000	0.00000000000000	
2.95498800000000	15.90069200000000	703.08048099999996	37.11026100000000	0.17041200000000	0.00000000000000	0.08558700000000	0.00000000000000	0.00000000000000	0.00000000000000	0.00000000000000	0.00000000000000	0.00000000000000	0.00000000000000	11.33582200000000	0.00000000000000	0.00000000000000	0.00000000000000	0.00000000000000	
2.95665700000000	15.47770000000000	704.21201799999994	37.10677000000000	0.16950800000000	0.00000000000000	0.08557500000000	0.00000000000000	0.00000000000000	0.00000000000000	0.00000000000000	0.00000000000000	0.00000000000000	0.00000000000000	11.36636900000000	0.00000000000000	0.00000000000000	0.00000000000000	0.00000000000000	
2.95832500000000	15.04133500000000	705.36388499999998	37.10473100000000	0.16858200000000	0.00000000000000	0.08556500000000	0.00000000000000	0.00000000000000	0.00000000000000	0.00000000000000	0.00000000000000	0.00000000000000	0.00000000000000	11.39949200000000	0.00000000000000	0.00000000000000	0.00000000000000	0.00000000000000	
2.95999000000000	14.59155300000000	706.53409499999998	37.10403100000000	0.16763700000000	0.00000000000000	0.08555500000000	0.00000000000000	0.00000000000000	0.00000000000000	0.00000000000000	0.00000000000000	0.00000000000000	0.00000000000000	11.43518300000000	0.00000000000000	0.00000000000000	0.00000000000000	0.00000000000000	
2.96165900000000	14.12836300000000	707.72079599999995	37.10456800000000	0.16667200000000	0.00000000000000	0.08554700000000	0.00000000000000	0.00000000000000	0.00000000000000	0.00000000000000	0.00000000000000	0.00000000000000	0.00000000000000	11.47342900000000	0.00000000000000	0.00000000000000	0.00000000000000	0.00000000000000	
2.96331700000000	13.65182900000000	708.92227200000002	37.10624600000000	0.16568900000000	0.00000000000000	0.08553900000000	0.00000000000000	0.00000000000000	0.00000000000000	0.00000000000000	0.00000000000000	0.00000000000000	0.00000000000000	11.51421700000000	0.00000000000000	0.00000000000000	0.00000000000000	0.00000000000000	
2.96498500000000	13.16206900000000	710.13695099999995	37.10898100000000	0.16468800000000	0.00000000000000	0.08553200000000	0.00000000000000	0.00000000000000	0.00000000000000	0.00000000000000	0.00000000000000	0.00000000000000	0.00000000000000	11.55752800000000	0.00000000000000	0.00000000000000	0.00000000000000	0.00000000000000	
2.96665100000000	12.65925300000000	711.36339999999996	37.11269800000000	0.16367100000000	0.00000000000000	0.08552600000000	0.00000000000000	0.00000000000000	0.00000000000000	0.00000000000000	0.00000000000000	0.00000000000000	0.00000000000000	11.60334300000000	0.00000000000000	0.00000000000000	0.00000000000000	0.00000000000000	
2.96832600000000	12.14360300000000	712.60032699999999	37.11733400000000	0.16263900000000	0.00000000000000	0.08552100000000	0.00000000000000	0.00000000000000	0.00000000000000	0.00000000000000	0.00000000000000	0.00000000000000	0.00000000000000	11.65163500000000	0.00000000000000	0.00000000000000	0.00000000000000	0.00000000000000	
2.96999000000000	11.61538900000000	713.84658300000001	37.12283600000000	0.16159400000000	0.00000000000000	0.08551600000000	0.00000000000000	0.00000000000000	0.00000000000000	0.00000000000000	0.00000000000000	0.00000000000000	0.00000000000000	11.70237600000000	0.00000000000000	0.00000000000000	0.00000000000000	0.00000000000000	
2.97165800000000	11.07493200000000	715.10115900000005	37.12916100000000	0.16053600000000	0.00000000000000	0.08551200000000	0.00000000000000	0.00000000000000	0.00000000000000	0.00000000000000	0.00000000000000	0.00000000000000	0.00000000000000	11.75553000000000	0.00000000000000	0.00000000000000	0.00000000000000	0.00000000000000	
2.97332400000000	10.52260200000000	716.36318400000005	37.13627800000000	0.15946800000000	0.00000000000000	0.08550800000000	0.00000000000000	0.00000000000000	0.00000000000000	0.00000000000000	0.00000000000000	0.00000000000000	0.00000000000000	11.81106000000000	0.00000000000000	0.00000000000000	0.00000000000000	0.00000000000000	
2.97498600000000	9.95881000000000	717.63192200000003	37.14416900000000	0.15839000000000	0.00000000000000	0.08550400000000	0.00000000000000	0.00000000000000	0.00000000000000	0.00000000000000	0.00000000000000	0.00000000000000	0.00000000000000	11.86892100000000	0.00000000000000	0.00000000000000	0.00000000000000	0.00000000000000	
2.97665300000000	9.38401500000000	718.90677100000005	37.15282600000000	0.15730300000000	0.00000000000000	0.08550000000000	0.00000000000000	0.00000000000000	0.00000000000000	0.00000000000000	0.00000000000000	0.00000000000000	0.00000000000000	11.92906200000000	0.00000000000000	0.00000000000000	0.00000000000000	0.00000000000000	
2.97832900000000	8.79871400000000	720.18725600000005	37.16225500000000	0.15621100000000	0.00000000000000	0.08549600000000	0.00000000000000	0.00000000000000	0.00000000000000	0.00000000000000	0.00000000000000	0.00000000000000	0.00000000000000	11.99142800000000	0.00000000000000	0.00000000000000	0.00000000000000	0.00000000000000	
2.97999200000000	8.20344300000000	721.47302600000000	37.17247300000000	0.15511300000000	0.00000000000000	0.08549200000000	0.00000000000000	0.00000000000000	0.00000000000000	0.00000000000000	0.00000000000000	0.00000000000000	0.00000000000000	12.05595800000000	0.00000000000000	0.00000000000000	0.00000000000000	0.00000000000000	
2.98165400000000	7.59877800000000	722.76384800000005	37.18350900000000	0.15401100000000	0.00000000000000	0.08548800000000	0.00000000000000	0.00000000000000	0.00000000000000	0.00000000000000	0.00000000000000	0.00000000000000	0.00000000000000	12.12258400000000	0.00000000000000	0.00000000000000	0.00000000000000	0.00000000000000	
2.98331900000000	6.98532400000000	724.05960000000005	37.19540600000000	0.15290700000000	0.00000000000000	0.08548400000000	0.00000000000000	0.00000000000000	0.00000000000000	0.00000000000000	0.00000000000000	0.00000000000000	0.00000000000000	12.19123100000000	0.00000000000000	0.00000000000000	0.00000000000000	0.00000000000000	
2.98498800000000	6.36372100000000	725.36026500000003	37.20821900000000	0.15180200000000	0.00000000000000	0.08548000000000	0.00000000000000	0.00000000000000	0.00000000000000	0.00000000000000	0.00000000000000	0.00000000000000	0.00000000000000	12.26181900000000	0.00000000000000	0.00000000000000	0.00000000000000	0.00000000000000	
2.98665500000000	5.73463600000000	726.66592600000001	37.22201700000000	0.15069700000000	0.00000000000000	0.08547500000000	0.00000000000000	0.00000000000000	0.00000000000000	0.00000000000000	0.00000000000000	0.00000000000000	0.00000000000000	12.33426300000000	0.00000000000000	0.00000000000000	0.00000000000000	0.00000000000000	
2.98833400000000	5.09876000000000	727.97675600000002	37.23688000000000	0.14959400000000	0.00000000000000	0.08547000000000	0.00000000000000	0.00000000000000	0.00000000000000	0.00000000000000	0.00000000000000	0.00000000000000	0.00000000000000	12.40846800000000	0.00000000000000	0.00000000000000	0.00000000000000	0.00000000000000	
2.98998400000000	4.45680800000000	729.29300899999998	37.25290200000000	0.14849400000000	0.00000000000000	0.08546400000000	0.00000000000000	0.00000000000000	0.00000000000000	0.00000000000000	0.00000000000000	0.00000000000000	0.00000000000000	12.48433500000000	0.00000000000000	0.00000000000000	0.00000000000000	0.00000000000000	
2.99165100000000	3.80951400000000	730.61501499999997	37.27019100000000	0.14739700000000	0.00000000000000	0.08545800000000	0.00000000000000	0.00000000000000	0.00000000000000	0.00000000000000	0.00000000000000	0.00000000000000	0.00000000000000	12.56175900000000	0.00000000000000	0.00000000000000	0.00000000000000	0.00000000000000	
2.99331800000000	3.15762700000000	731.94316800000001	37.28886500000000	0.14630600000000	0.00000000000000	0.08545100000000	0.00000000000000	0.00000000000000	0.00000000000000	0.00000000000000	0.00000000000000	0.00000000000000	0.00000000000000	12.64062800000000	0.00000000000000	0.00000000000000	0.00000000000000	0.00000000000000	
2.99498700000000	2.50191200000000	733.27791900000000	37.30905800000000	0.14522000000000	0.00000000000000	0.08544400000000	0.00000000000000	0.00000000000000	0.00000000000000	0.00000000000000	0.00000000000000	0.00000000000000	0.00000000000000	12.72082400000000	0.00000000000000	0.00000000000000	0.00000000000000	0.00000000000000	
2.99665600000000	1.84314200000000	734.61976600000003	37.33091200000000	0.14414200000000	0.00000000000000	0.08543600000000	0.00000000000000	0.00000000000000	0.00000000000000	0.00000000000000	0.00000000000000	0.00000000000000	0.00000000000000	12.80222300000000	0.00000000000000	0.00000000000000	0.00000000000000	0.00000000000000	
